<?xml version="1.0" encoding="UTF-8" standalone="no"?>
<!-- Created with Inkscape (http://www.inkscape.org/) -->

<svg
   width="69.885139mm"
   height="22.467958mm"
   viewBox="0 0 69.885139 22.467958"
   version="1.1"
   id="svg3624"
   inkscape:version="1.2.1 (9c6d41e410, 2022-07-14)"
   sodipodi:docname="L6_stop.svg"
   xmlns:inkscape="http://www.inkscape.org/namespaces/inkscape"
   xmlns:sodipodi="http://sodipodi.sourceforge.net/DTD/sodipodi-0.dtd"
   xmlns="http://www.w3.org/2000/svg"
   xmlns:svg="http://www.w3.org/2000/svg">
  <sodipodi:namedview
     id="namedview3626"
     pagecolor="#ffffff"
     bordercolor="#000000"
     borderopacity="0.25"
     inkscape:showpageshadow="2"
     inkscape:pageopacity="0.0"
     inkscape:pagecheckerboard="0"
     inkscape:deskcolor="#d1d1d1"
     inkscape:document-units="mm"
     showgrid="false"
     inkscape:zoom="2.0510461"
     inkscape:cx="111.89412"
     inkscape:cy="99.705216"
     inkscape:window-width="1920"
     inkscape:window-height="1001"
     inkscape:window-x="-9"
     inkscape:window-y="-9"
     inkscape:window-maximized="1"
     inkscape:current-layer="layer1" />
  <defs
     id="defs3621">
				
				
			</defs>
  <g
     inkscape:label="Layer 1"
     inkscape:groupmode="layer"
     id="layer1"
     transform="translate(-76.566724,-110.9957)">
    <g
       id="g3780">
      <path
         style="fill:none;fill-opacity:1;stroke:#ffffff;stroke-width:5.82083;stroke-dasharray:none;stroke-opacity:1"
         d="m 106.76436,122.22968 h 39.6875"
         id="path1733-6" />
      <path
         style="fill:none;fill-opacity:1;stroke:#78858c;stroke-width:2.64583;stroke-dasharray:none;stroke-opacity:1"
         d="m 106.76436,122.22968 h 39.6875"
         id="path1733" />
      <path
         class="st3"
         d="m 126.64979,127.73372 c -3.03521,0 -5.50431,-2.4691 -5.50431,-5.50405 0,-3.03496 2.4691,-5.50406 5.50431,-5.50406 3.03496,0 5.50406,2.4691 5.50406,5.50406 0,3.03495 -2.4691,5.50405 -5.50406,5.50405 z"
         id="path1222"
         style="clip-rule:evenodd;fill:#78858c;fill-rule:evenodd;stroke-width:0.264583" />
      <path
         class="st2"
         d="m 126.64973,117.45321 c 2.63378,0 4.77652,2.14273 4.77652,4.77652 0,2.63379 -2.14274,4.77652 -4.77652,4.77652 -2.63379,0 -4.77652,-2.14273 -4.77652,-4.77652 0,-2.63379 2.14273,-4.77652 4.77652,-4.77652 m 0,-1.45521 c -3.44169,0 -6.23173,2.79005 -6.23173,6.23173 0,3.44168 2.79004,6.23173 6.23173,6.23173 3.44168,0 6.23172,-2.79005 6.23172,-6.23173 0,-3.44168 -2.79004,-6.23173 -6.23172,-6.23173 z"
         id="path1224"
         style="fill:#ffffff;stroke-width:0.264583" />
    </g>
    <g
       id="g16"
       transform="matrix(0.06450555,0,0,0.06450555,73.20726,102.62005)">
			<g
   id="g10">
				<path
   class="st1"
   d="m 423.79953,462.76254 c 0,6.37454 -5.1593,11.54654 -11.53583,11.54654 H 67.464005 c -6.376641,0 -11.538151,-5.172 -11.538151,-11.54654 V 145.22543 c 0,-6.37454 5.16151,-11.53349 11.538151,-11.53349 l 344.799685,-0.002 c 6.37652,0 11.53582,5.16362 11.53582,11.53582 v 317.53711 z"
   id="path6"
   style="clip-rule:evenodd;fill:#7b868c;fill-rule:evenodd" />

				<path
   class="st2"
   d="m 427.61456,144.45111 -0.0582,-0.78033 -0.0888,-0.7724 -0.14758,-0.76355 -0.17371,-0.73743 -0.20203,-0.72852 -0.23791,-0.71588 -0.28461,-0.70471 -0.30383,-0.6767 -0.32898,-0.66406 -0.38409,-0.66083 -0.3902,-0.61828 -0.42774,-0.60291 -0.46209,-0.57251 -0.48139,-0.56836 -0.51788,-0.53332 -0.52106,-0.50342 -0.56775,-0.48383 -0.57312,-0.44641 -0.60058,-0.42779 -0.63361,-0.40351 -0.63275,-0.3684 -0.66174,-0.34699 -0.69397,-0.30359 -0.68793,-0.28253 -0.71539,-0.24005 -0.74372,-0.20221 -0.73761,-0.17371 -0.76355,-0.1466 -0.77429,-0.0897 -0.78046,-0.0579 -0.77429,-0.0308 v 0.0154 l -344.799741,0.002 v -0.0154 l -0.774292,0.0308 -0.780456,0.0579 -0.774292,0.0887 -0.763672,0.14752 -0.737492,0.17377 -0.728394,0.20221 -0.716247,0.23767 -0.70459,0.28491 -0.677185,0.30353 -0.66333,0.32922 -0.661194,0.38385 -0.618164,0.39045 -0.602905,0.42779 -0.57312,0.46185 -0.567749,0.48145 -0.536377,0.50342 -0.502564,0.53564 -0.481384,0.5506 -0.462097,0.58795 -0.427674,0.61835 -0.387939,0.6178 -0.368836,0.63141 -0.34729,0.66357 -0.3031,0.69165 -0.282288,0.70471 -0.240967,0.7005 -0.201294,0.74158 -0.173584,0.73975 -0.147705,0.76355 -0.08887,0.7724 -0.0581,0.78033 -0.03058,0.77429 v 317.53711 l 0.03058,0.77429 0.0581,0.78034 0.08887,0.77246 0.147705,0.76587 0.173584,0.73736 0.201294,0.74396 0.240967,0.70001 0.282288,0.7052 0.3031,0.69391 0.34729,0.66132 0.368836,0.63373 0.387939,0.61779 0.427674,0.61835 0.462097,0.57251 0.481384,0.56836 0.502564,0.53565 0.536377,0.50341 0.552429,0.48334 0.58844,0.46234 0.602905,0.42682 0.618164,0.39044 0.645874,0.3689 0.664063,0.34698 0.691772,0.30311 0.68927,0.28485 0.731567,0.24005 0.728394,0.19989 0.737492,0.17602 0.763672,0.14759 0.774292,0.0864 0.765197,0.0602 0.789551,0.0308 H 412.26373 l 0.78888,-0.0308 0.76587,-0.0602 0.77429,-0.0864 0.76355,-0.14759 0.73761,-0.17602 0.7284,-0.19989 0.73071,-0.24005 0.68793,-0.28485 0.69397,-0.30311 0.66174,-0.34698 0.63275,-0.3689 0.63361,-0.40539 0.60058,-0.42493 0.58759,-0.44928 0.55328,-0.48334 0.53552,-0.50341 0.50342,-0.53565 0.48139,-0.56836 0.46209,-0.57251 0.42774,-0.6029 0.3902,-0.63324 0.38409,-0.6482 0.32898,-0.66174 0.30383,-0.67902 0.28461,-0.7052 0.23791,-0.71545 0.20203,-0.72852 0.17371,-0.73736 0.14758,-0.76587 0.0888,-0.77246 0.0582,-0.78034 0.0306,-0.77429 V 145.2254 Z m -7.66052,0.77429 v 317.53711 0.41425 l -0.0283,0.38995 -0.0583,0.38196 -0.0566,0.37549 -0.0818,0.37732 -0.1109,0.36895 -0.1217,0.35584 -0.13239,0.34418 -0.15606,0.34515 -0.17749,0.33203 -0.17139,0.31799 -0.21271,0.30402 -0.21502,0.30359 -0.22339,0.29932 -0.24256,0.26947 -0.26013,0.26617 -0.26703,0.26062 -0.28393,0.24518 -0.28461,0.23627 -0.30145,0.21667 -0.30298,0.19708 -0.33435,0.18683 -0.33209,0.16437 -0.32978,0.15692 -0.3573,0.13165 -0.34051,0.12378 -0.36871,0.10883 -0.3772,0.084 -0.37341,0.057 -0.3841,0.0565 -0.40558,0.0299 H 412.26373 67.464005 67.064651 l -0.405517,-0.0299 -0.383362,-0.0565 -0.373413,-0.057 -0.377197,-0.084 -0.368836,-0.10883 -0.340393,-0.12378 -0.360412,-0.13165 -0.327515,-0.15692 -0.333561,-0.16437 -0.316711,-0.18683 -0.319092,-0.21246 -0.303772,-0.21436 -0.283814,-0.2232 -0.283935,-0.24518 -0.267029,-0.26062 -0.260132,-0.26617 -0.243286,-0.26947 -0.22345,-0.29932 -0.214233,-0.28815 -0.210388,-0.31945 -0.186707,-0.33344 -0.164489,-0.33203 -0.156067,-0.32971 -0.130921,-0.34418 -0.123169,-0.37128 -0.1109,-0.35351 -0.08185,-0.37732 -0.05664,-0.37549 -0.05896,-0.38196 -0.02753,-0.38995 v -0.41425 -317.53711 -0.41418 l 0.02753,-0.38996 0.05896,-0.38201 0.05664,-0.37317 0.08185,-0.37964 0.1109,-0.3512 0.123169,-0.37128 0.130921,-0.34417 0.156067,-0.32733 0.164489,-0.33442 0.186707,-0.33203 0.210388,-0.31848 0.214233,-0.28815 0.22345,-0.28485 0.243286,-0.28161 0.260132,-0.26709 0.267029,-0.26013 0.268616,-0.24237 0.299133,-0.22321 0.303772,-0.21533 0.319092,-0.21247 0.301452,-0.17138 0.333561,-0.17749 0.342774,-0.15644 0.345092,-0.13214 0.355713,-0.12188 0.368836,-0.11066 0.377197,-0.0817 0.373413,-0.057 0.383362,-0.0588 0.390869,-0.0275 h 0.414001 v -0.0154 l 344.799746,-0.002 v 0.0149 h 0.41388 l 0.39026,0.0285 0.38409,0.0579 0.37341,0.0569 0.3772,0.0827 0.35339,0.11016 0.35584,0.12378 0.3573,0.13031 0.32977,0.15595 0.33209,0.16437 0.33436,0.18682 0.30297,0.19519 0.30146,0.21949 0.29992,0.23401 0.26862,0.24469 0.28229,0.26013 0.24487,0.26477 0.24255,0.26849 0.22339,0.3003 0.21503,0.30358 0.21271,0.31849 0.17138,0.3012 0.17749,0.33435 0.15607,0.34278 0.13239,0.34417 0.1217,0.3559 0.1109,0.3689 0.0818,0.37732 0.0566,0.37317 0.0583,0.38201 0.0283,0.38996 v 0.41418 z"
   id="path8"
   style="fill:#ffffff" />

			</g>

			<g
   id="g14">
				<path
   class="st2"
   d="m 201.14445,280.11142 c 5.79981,-5.91943 12.7876,-10.39014 20.95801,-13.40967 8.16992,-3.01953 17.28662,-4.52881 27.35108,-4.52881 24.86522,0 44.78514,7.57862 59.76561,22.73389 14.97656,15.15771 22.46679,35.34424 22.46679,60.56396 0,26.76075 -8.16992,48.3711 -24.50976,64.82715 -16.33985,16.45996 -37.89063,24.6875 -64.64842,24.6875 -30.9043,0 -54.3794,-10.65625 -70.42237,-31.96875 -16.0459,-21.31347 -24.06592,-52.51172 -24.06592,-93.59961 0,-44.16406 8.5835,-77.93994 25.75342,-101.32617 17.16699,-23.3833 41.91553,-35.07764 74.24073,-35.07764 22.49412,0 40.6406,5.86084 54.43553,17.58301 13.79297,11.72217 21.34179,27.59082 22.64648,47.59912 h -51.50781 c -1.1836,-8.16992 -4.38086,-14.32519 -9.58985,-18.47119 -5.21093,-4.14306 -12.49412,-6.21631 -21.84568,-6.21631 -12.78809,0 -22.61768,5.53662 -29.4834,16.60645 -6.86817,11.07275 -10.71729,27.7373 -11.54444,49.99707 z m 0.71045,66.42578 c 0,14.56348 3.64112,26.1084 10.92286,34.63281 7.28222,8.52539 17.19775,12.78809 29.75,12.78809 11.7207,0 20.89646,-4.14258 27.52928,-12.43262 6.6289,-8.28613 9.94531,-19.83105 9.94531,-34.63379 0,-13.61425 -3.43555,-24.21289 -10.30078,-31.79199 -6.86914,-7.57617 -16.51756,-11.36621 -28.95116,-11.36621 -12.1958,0 -21.72851,3.79004 -28.59424,11.36621 -6.86865,7.5791 -10.30127,18.05859 -10.30127,31.4375 z"
   id="path12"
   style="fill:#ffffff" />

			</g>

		</g>
  </g>
</svg>
